<mxfile host="app.diagrams.net" modified="2023-07-02T13:55:41.883Z" agent="Mozilla/5.0 (Macintosh; Intel Mac OS X 10_15_7) AppleWebKit/605.1.15 (KHTML, like Gecko) Version/16.4 Safari/605.1.15" etag="31eyMvIlkvA5SbazerQb" version="21.5.2" type="github">
  <diagram name="第 1 页" id="n4yTNv1PeKjo_5p-pt_t">
    <mxGraphModel dx="755" dy="733" grid="1" gridSize="10" guides="1" tooltips="1" connect="1" arrows="1" fold="1" page="1" pageScale="1" pageWidth="1654" pageHeight="2336" math="1" shadow="0">
      <root>
        <mxCell id="0" />
        <mxCell id="1" parent="0" />
        <mxCell id="rcnBGDcYv02o4lfGUzAK-12" style="edgeStyle=orthogonalEdgeStyle;rounded=0;orthogonalLoop=1;jettySize=auto;html=1;exitX=0.5;exitY=1;exitDx=0;exitDy=0;entryX=0.25;entryY=0;entryDx=0;entryDy=0;" edge="1" parent="1" source="rcnBGDcYv02o4lfGUzAK-3" target="rcnBGDcYv02o4lfGUzAK-10">
          <mxGeometry relative="1" as="geometry" />
        </mxCell>
        <mxCell id="rcnBGDcYv02o4lfGUzAK-15" style="edgeStyle=orthogonalEdgeStyle;rounded=0;orthogonalLoop=1;jettySize=auto;html=1;exitX=0.75;exitY=1;exitDx=0;exitDy=0;entryX=0.75;entryY=0;entryDx=0;entryDy=0;" edge="1" parent="1" source="rcnBGDcYv02o4lfGUzAK-3" target="rcnBGDcYv02o4lfGUzAK-10">
          <mxGeometry relative="1" as="geometry" />
        </mxCell>
        <mxCell id="rcnBGDcYv02o4lfGUzAK-3" value="&lt;font style=&quot;font-size: 14px;&quot;&gt;来自A的演讲者嵌入1&lt;/font&gt;" style="rounded=0;whiteSpace=wrap;html=1;strokeColor=#9C6566;fillColor=#F7CECC;fontColor=#000000;strokeWidth=2;" vertex="1" parent="1">
          <mxGeometry x="180" y="240" width="140" height="50" as="geometry" />
        </mxCell>
        <mxCell id="rcnBGDcYv02o4lfGUzAK-17" style="rounded=0;orthogonalLoop=1;jettySize=auto;html=1;exitX=0.5;exitY=1;exitDx=0;exitDy=0;entryX=0.5;entryY=0;entryDx=0;entryDy=0;" edge="1" parent="1" source="rcnBGDcYv02o4lfGUzAK-4" target="rcnBGDcYv02o4lfGUzAK-3">
          <mxGeometry relative="1" as="geometry" />
        </mxCell>
        <mxCell id="rcnBGDcYv02o4lfGUzAK-18" style="rounded=0;orthogonalLoop=1;jettySize=auto;html=1;exitX=0.5;exitY=1;exitDx=0;exitDy=0;entryX=0.5;entryY=0;entryDx=0;entryDy=0;" edge="1" parent="1" source="rcnBGDcYv02o4lfGUzAK-4" target="rcnBGDcYv02o4lfGUzAK-6">
          <mxGeometry relative="1" as="geometry" />
        </mxCell>
        <mxCell id="rcnBGDcYv02o4lfGUzAK-19" style="edgeStyle=orthogonalEdgeStyle;rounded=0;orthogonalLoop=1;jettySize=auto;html=1;exitX=0.5;exitY=1;exitDx=0;exitDy=0;entryX=0.5;entryY=0;entryDx=0;entryDy=0;" edge="1" parent="1" source="rcnBGDcYv02o4lfGUzAK-4" target="rcnBGDcYv02o4lfGUzAK-5">
          <mxGeometry relative="1" as="geometry" />
        </mxCell>
        <mxCell id="rcnBGDcYv02o4lfGUzAK-4" value="&lt;font style=&quot;font-size: 16px;&quot;&gt;已训练的演讲者嵌入网络&lt;br&gt;（Trained Speaker Embedding Network）&lt;/font&gt;" style="rounded=0;whiteSpace=wrap;html=1;fillColor=#dae8fc;strokeColor=#6c8ebf;strokeWidth=2;" vertex="1" parent="1">
          <mxGeometry x="300" y="100" width="290" height="80" as="geometry" />
        </mxCell>
        <mxCell id="rcnBGDcYv02o4lfGUzAK-14" style="edgeStyle=orthogonalEdgeStyle;rounded=0;orthogonalLoop=1;jettySize=auto;html=1;exitX=0.5;exitY=1;exitDx=0;exitDy=0;entryX=0.25;entryY=0;entryDx=0;entryDy=0;" edge="1" parent="1" source="rcnBGDcYv02o4lfGUzAK-5" target="rcnBGDcYv02o4lfGUzAK-10">
          <mxGeometry relative="1" as="geometry" />
        </mxCell>
        <mxCell id="rcnBGDcYv02o4lfGUzAK-5" value="&lt;font style=&quot;font-size: 14px;&quot;&gt;来自A的演讲者嵌入2&lt;/font&gt;" style="rounded=0;whiteSpace=wrap;html=1;strokeColor=#82b366;fillColor=#d5e8d4;strokeWidth=2;" vertex="1" parent="1">
          <mxGeometry x="367.5" y="240" width="155" height="50" as="geometry" />
        </mxCell>
        <mxCell id="rcnBGDcYv02o4lfGUzAK-16" style="edgeStyle=orthogonalEdgeStyle;rounded=0;orthogonalLoop=1;jettySize=auto;html=1;exitX=0.5;exitY=1;exitDx=0;exitDy=0;entryX=0.75;entryY=0;entryDx=0;entryDy=0;" edge="1" parent="1" source="rcnBGDcYv02o4lfGUzAK-6" target="rcnBGDcYv02o4lfGUzAK-10">
          <mxGeometry relative="1" as="geometry" />
        </mxCell>
        <mxCell id="rcnBGDcYv02o4lfGUzAK-6" value="&lt;font style=&quot;font-size: 14px;&quot;&gt;来自B的演讲者嵌入3&lt;/font&gt;" style="rounded=0;whiteSpace=wrap;html=1;strokeColor=#9673a6;fillColor=#e1d5e7;strokeWidth=2;" vertex="1" parent="1">
          <mxGeometry x="567.5" y="240" width="147.5" height="50" as="geometry" />
        </mxCell>
        <mxCell id="rcnBGDcYv02o4lfGUzAK-8" value="&lt;div class=&quot;page&quot; title=&quot;Page 24&quot; style=&quot;caret-color: rgb(0, 0, 0); color: rgb(0, 0, 0); font-style: normal; font-variant-caps: normal; font-weight: 400; letter-spacing: normal; text-align: start; text-indent: 0px; text-transform: none; word-spacing: 0px; -webkit-text-stroke-width: 0px; text-decoration: none;&quot;&gt;&lt;div class=&quot;section&quot; style=&quot;background-color: rgb(255, 255, 255);&quot;&gt;&lt;div class=&quot;layoutArea&quot;&gt;&lt;div class=&quot;column&quot;&gt;&lt;p&gt;&lt;span style=&quot;font-size: 14pt; font-family: MicrosoftYaHei; font-weight: 700; color: rgb(83, 88, 95);&quot;&gt;Step 3: back-end 余弦距离度量学习&lt;/span&gt;&lt;/p&gt;&lt;/div&gt;&lt;/div&gt;&lt;/div&gt;&lt;/div&gt;" style="text;whiteSpace=wrap;html=1;" vertex="1" parent="1">
          <mxGeometry x="290" y="30" width="330" height="70" as="geometry" />
        </mxCell>
        <mxCell id="rcnBGDcYv02o4lfGUzAK-11" value="" style="group" vertex="1" connectable="0" parent="1">
          <mxGeometry x="342.5" y="370" width="225" height="70" as="geometry" />
        </mxCell>
        <mxCell id="rcnBGDcYv02o4lfGUzAK-7" value="" style="rounded=0;whiteSpace=wrap;html=1;fillColor=#fff2cc;strokeColor=#d6b656;strokeWidth=2;" vertex="1" parent="rcnBGDcYv02o4lfGUzAK-11">
          <mxGeometry width="225" height="70" as="geometry" />
        </mxCell>
        <mxCell id="rcnBGDcYv02o4lfGUzAK-10" value="$$&#xa;C S(\mathbf{x}, \mathbf{y}, \mathbf{A})=\frac{(\mathbf{A} \mathbf{x})^T(\mathbf{A} \mathbf{y})}{\|\mathbf{A x}\|\|\mathbf{A} \mathbf{y}\|}&#xa;$$" style="text;whiteSpace=wrap;" vertex="1" parent="rcnBGDcYv02o4lfGUzAK-11">
          <mxGeometry x="22.5" width="180" height="60" as="geometry" />
        </mxCell>
        <mxCell id="rcnBGDcYv02o4lfGUzAK-23" style="edgeStyle=orthogonalEdgeStyle;rounded=0;orthogonalLoop=1;jettySize=auto;html=1;exitX=0.5;exitY=1;exitDx=0;exitDy=0;entryX=0.5;entryY=0;entryDx=0;entryDy=0;" edge="1" parent="1" source="rcnBGDcYv02o4lfGUzAK-20" target="rcnBGDcYv02o4lfGUzAK-21">
          <mxGeometry relative="1" as="geometry" />
        </mxCell>
        <mxCell id="rcnBGDcYv02o4lfGUzAK-20" value="&lt;font style=&quot;font-size: 15px;&quot;&gt;&lt;b&gt;Triplet Loss&lt;/b&gt;&lt;/font&gt;" style="rounded=0;whiteSpace=wrap;html=1;" vertex="1" parent="1">
          <mxGeometry x="377.5" y="480" width="155" height="40" as="geometry" />
        </mxCell>
        <mxCell id="rcnBGDcYv02o4lfGUzAK-21" value="&lt;font style=&quot;font-size: 14px;&quot;&gt;Matrix A&lt;/font&gt;" style="whiteSpace=wrap;html=1;aspect=fixed;strokeColor=#CC0000;fillColor=#f5f5f5;fontColor=#333333;" vertex="1" parent="1">
          <mxGeometry x="423.75" y="550" width="62.5" height="62.5" as="geometry" />
        </mxCell>
        <mxCell id="rcnBGDcYv02o4lfGUzAK-22" style="edgeStyle=orthogonalEdgeStyle;rounded=0;orthogonalLoop=1;jettySize=auto;html=1;exitX=0.5;exitY=1;exitDx=0;exitDy=0;entryX=0.5;entryY=0;entryDx=0;entryDy=0;" edge="1" parent="1" source="rcnBGDcYv02o4lfGUzAK-7" target="rcnBGDcYv02o4lfGUzAK-20">
          <mxGeometry relative="1" as="geometry" />
        </mxCell>
      </root>
    </mxGraphModel>
  </diagram>
</mxfile>
